<svg width="108" height="28" viewBox="0 0 108 28" fill="none" xmlns="http://www.w3.org/2000/svg">
<path d="M99.2185 27.4966C97.7735 27.4966 96.407 27.1825 95.119 26.5542C93.8625 25.926 92.8415 25.0935 92.0562 24.0569C91.3023 22.9888 90.9253 21.8422 90.9253 20.6171H94.6007C94.6007 20.6799 94.6164 20.9155 94.6478 21.3239C94.6792 21.7322 94.8206 22.1877 95.0719 22.6904C95.3232 23.193 95.763 23.6328 96.3913 24.0097C97.0509 24.3867 97.9777 24.5752 99.1714 24.5752C100.491 24.5752 101.559 24.3396 102.376 23.8684C103.192 23.3972 103.601 22.7375 103.601 21.8893C103.601 21.104 103.302 20.4914 102.705 20.0516C102.109 19.6118 101.339 19.2663 100.396 19.015C99.4541 18.7322 98.4488 18.4652 97.3808 18.2139C96.3441 17.9626 95.3546 17.6328 94.4122 17.2244C93.5012 16.7846 92.7473 16.2035 92.1504 15.4809C91.585 14.727 91.318 13.7218 91.3494 12.4652C91.3494 10.7689 92.0562 9.46523 93.4698 8.55424C94.9148 7.61183 96.7368 7.14062 98.9358 7.14062C100.349 7.14062 101.7 7.37623 102.988 7.84743C104.276 8.28722 105.328 9.00974 106.145 10.015C106.993 11.0202 107.402 12.371 107.37 14.0673H103.742C103.773 12.9993 103.522 12.1982 102.988 11.6642C102.486 11.0987 101.857 10.7218 101.103 10.5333C100.349 10.3134 99.6426 10.2035 98.9829 10.2035C97.7263 10.2035 96.7368 10.4391 96.0143 10.9103C95.2918 11.35 94.9305 11.9469 94.9305 12.7008C94.9305 13.5176 95.229 14.1459 95.8258 14.5857C96.4227 14.994 97.1923 15.3396 98.1347 15.6223C99.0771 15.8736 100.067 16.1249 101.103 16.3762C102.171 16.6275 103.177 16.9574 104.119 17.3658C105.061 17.7741 105.831 18.3553 106.428 19.1092C107.056 19.8631 107.37 20.8684 107.37 22.1249C107.37 23.9783 106.601 25.3448 105.061 26.2244C103.522 27.0726 101.575 27.4966 99.2185 27.4966Z" fill="white"/>
<path d="M85.0645 5.63244C84.2163 5.66386 83.6509 5.45967 83.3682 5.01988C83.0855 4.58009 82.9441 4.03035 82.9441 3.37066C82.9441 2.80522 83.0855 2.3026 83.3682 1.86281C83.6509 1.42302 84.2163 1.20312 85.0645 1.20312C85.8813 1.20312 86.431 1.42302 86.7137 1.86281C87.0279 2.3026 87.1849 2.80522 87.1849 3.37066C87.1849 4.03035 87.0279 4.58009 86.7137 5.01988C86.431 5.42826 85.8813 5.63244 85.0645 5.63244ZM83.0855 27.0251V7.75286H86.9964V27.0251H83.0855Z" fill="white"/>
<path d="M74.1318 27.0324C72.781 27.0324 71.7915 26.6868 71.1632 25.9957C70.5663 25.3046 70.2679 24.2523 70.2679 22.8387V10.5874H67.2993V7.76014C68.2731 7.76014 68.9957 7.68161 69.4669 7.52454C69.9695 7.33606 70.2993 6.89627 70.4564 6.20517C70.6449 5.48265 70.7391 4.35177 70.7391 2.8125H73.9904V7.76014H78.4197V10.5874H73.9904V23.9224H78.4669V27.0324H74.1318Z" fill="white"/>
<path d="M47.082 27.0301V7.80493H50.4276L51.0873 12.2343H51.1815C51.2129 12.1086 51.3386 11.8102 51.5585 11.339C51.7784 10.8678 52.1396 10.3651 52.6422 9.83111C53.1449 9.26567 53.8202 8.77875 54.6684 8.37038C55.5166 7.962 56.5847 7.75781 57.8726 7.75781C59.5689 7.75781 60.8883 8.08766 61.8307 8.74734C62.7731 9.37561 63.4642 10.2081 63.904 11.2447C64.3438 12.25 64.6108 13.318 64.7051 14.4489C64.8307 15.5798 64.8935 16.6322 64.8935 17.606V27.0301H61.0768V17.5589C61.0768 16.3651 60.9511 15.2971 60.6998 14.3547C60.4485 13.3808 59.9773 12.6269 59.2862 12.0929C58.6265 11.5274 57.6527 11.2447 56.3648 11.2447C55.0454 11.2447 53.993 11.5589 53.2077 12.1871C52.4223 12.8154 51.8726 13.6322 51.5585 14.6374C51.2443 15.6426 51.0873 16.7107 51.0873 17.8416V27.0301H47.082Z" fill="white"/>
<path d="M34.4053 27.5018C32.2378 27.5018 30.4629 27.0306 29.0807 26.0881C27.6985 25.1143 26.6775 23.8735 26.0179 22.3656C25.3582 20.8578 25.0283 19.2714 25.0283 17.6065C24.9969 15.7531 25.3425 14.0724 26.065 12.5646C26.8189 11.0567 27.887 9.86301 29.2692 8.98343C30.6828 8.10385 32.3634 7.66406 34.311 7.66406C35.976 7.66406 37.4681 8.04103 38.7875 8.79495C40.1383 9.51747 41.2063 10.5541 41.9917 11.9049C42.777 13.2243 43.2011 14.795 43.2639 16.6169C43.2639 16.7112 43.2639 16.8997 43.2639 17.1824C43.2953 17.4337 43.3111 17.6536 43.3111 17.8421H28.7508C28.7508 19.8525 29.2378 21.4232 30.2116 22.5541C31.2168 23.6536 32.599 24.2033 34.3582 24.2033C35.6775 24.2033 36.7927 23.8735 37.7037 23.2138C38.6461 22.5227 39.2273 21.6117 39.4472 20.4808H43.2639C42.9812 22.4913 42.0702 24.1719 40.5309 25.5227C38.9917 26.8421 36.9498 27.5018 34.4053 27.5018ZM28.8922 15.9101H39.3529C39.3215 15.5646 39.2273 15.1091 39.0702 14.5436C38.9131 13.9782 38.6461 13.4285 38.2692 12.8944C37.9236 12.329 37.421 11.8578 36.7613 11.4808C36.1016 11.1039 35.2535 10.9154 34.2168 10.9154C32.9289 10.9154 31.9079 11.1981 31.154 11.7635C30.4315 12.2976 29.8817 12.9573 29.5048 13.7426C29.1592 14.4965 28.955 15.219 28.8922 15.9101Z" fill="white"/>
<path d="M0.62793 27.0288V0.5H10.6646C11.7012 0.5 12.8164 0.578535 14.0101 0.735603C15.2038 0.861257 16.319 1.15969 17.3557 1.63089C18.3923 2.07068 19.2405 2.76178 19.9002 3.70419C20.5599 4.6466 20.8897 5.91885 20.8897 7.52094C20.8897 8.52618 20.6855 9.46859 20.2771 10.3482C19.9002 11.1963 19.1934 11.8874 18.1567 12.4215C17.1201 12.9555 15.6436 13.2539 13.7274 13.3168V13.5052C15.9578 13.5366 17.6698 13.8508 18.8635 14.4476C20.0887 15.0445 20.9368 15.8298 21.408 16.8037C21.8792 17.7461 22.1148 18.7984 22.1148 19.9607C22.1148 21.6257 21.7536 22.9293 21.0311 23.8717C20.3086 24.8141 19.3819 25.5209 18.251 25.9921C17.1201 26.4319 15.9107 26.7147 14.6227 26.8403C13.3661 26.966 12.1724 27.0288 11.0415 27.0288H0.62793ZM4.4918 11.8089H10.1934C11.4813 11.8089 12.6279 11.7461 13.6332 11.6204C14.6698 11.4634 15.4866 11.1021 16.0834 10.5366C16.6803 9.9712 16.9787 9.09162 16.9787 7.89791C16.9787 6.60995 16.6646 5.68325 16.0363 5.1178C15.408 4.52094 14.5756 4.14398 13.5389 3.98691C12.5023 3.82984 11.4028 3.75131 10.2405 3.75131H4.4918V11.8089ZM4.4918 23.8246H10.7117C12.0625 23.8246 13.2876 23.7461 14.3871 23.589C15.4866 23.4005 16.3661 23.0079 17.0258 22.411C17.7169 21.7827 18.0625 20.8089 18.0625 19.4895C18.0625 18.1387 17.7012 17.1335 16.9787 16.4738C16.2876 15.8141 15.3452 15.3901 14.1515 15.2016C12.9892 14.9817 11.7169 14.8717 10.3347 14.8717H4.4918V23.8246Z" fill="white"/>
</svg>
