<svg width="180" height="64" viewBox="0 0 180 64" fill="none" xmlns="http://www.w3.org/2000/svg">
<path d="M81.2698 44.8406C79.0717 44.8406 77.1842 44.4521 75.6078 43.6749C74.0314 42.8978 72.7436 41.8876 71.7442 40.6441C70.7674 39.4007 70.0457 38.0463 69.5795 36.5808C69.1133 35.1154 68.8799 33.7054 68.8799 32.351V31.6183C68.8799 30.1085 69.1133 28.6208 69.5795 27.1553C70.0679 25.6899 70.8117 24.3577 71.8106 23.1587C72.81 21.9597 74.0757 21.0049 75.6078 20.2944C77.162 19.5617 78.9939 19.1953 81.1029 19.1953C83.3011 19.1953 85.2108 19.595 86.8319 20.3943C88.4748 21.1714 89.7848 22.2816 90.7615 23.7249C91.7388 25.1459 92.3271 26.8112 92.5269 28.7207H87.7644C87.5866 27.6105 87.1869 26.678 86.5651 25.923C85.966 25.1459 85.1999 24.5686 84.267 24.1912C83.3346 23.7915 82.2801 23.5917 81.1029 23.5917C79.9042 23.5917 78.8383 23.8026 77.9059 24.2245C76.9735 24.6241 76.1961 25.2014 75.5743 25.9564C74.9525 26.7113 74.4755 27.5995 74.1422 28.6208C73.8316 29.6422 73.676 30.7745 73.676 32.018C73.676 33.217 73.8316 34.3272 74.1422 35.3485C74.4755 36.3699 74.9639 37.2692 75.6078 38.0463C76.2517 38.8012 77.0399 39.3896 77.9724 39.8115C78.9269 40.2334 80.0263 40.4443 81.2698 40.4443C83.0904 40.4443 84.6225 40.0002 85.866 39.1121C87.1313 38.2017 87.8973 36.9361 88.1641 35.3152H92.9267C92.7047 37.0471 92.1164 38.6347 91.1613 40.0779C90.2067 41.5212 88.8967 42.6757 87.2312 43.5417C85.5662 44.4077 83.5788 44.8406 81.2698 44.8406Z" fill="white"/>
<path d="M95.1192 44.2115V19.8984H99.7488V44.2115H95.1192ZM92.8545 23.3622V19.8984H99.7488V23.3622H92.8545Z" fill="white"/>
<path d="M112.062 44.8505C110.463 44.8505 109.053 44.5952 107.832 44.0845C106.611 43.5738 105.578 42.8855 104.735 42.0196C103.891 41.1314 103.247 40.1323 102.803 39.0221C102.381 37.9119 102.17 36.7573 102.17 35.5583V34.8589C102.17 33.6155 102.392 32.4387 102.836 31.3285C103.302 30.1961 103.957 29.1969 104.801 28.331C105.667 27.4428 106.711 26.7545 107.932 26.266C109.153 25.7554 110.53 25.5 112.062 25.5C113.594 25.5 114.97 25.7554 116.192 26.266C117.413 26.7545 118.445 27.4428 119.289 28.331C120.155 29.1969 120.81 30.1961 121.254 31.3285C121.698 32.4387 121.92 33.6155 121.92 34.8589V35.5583C121.92 36.7573 121.698 37.9119 121.254 39.0221C120.832 40.1323 120.199 41.1314 119.356 42.0196C118.512 42.8855 117.479 43.5738 116.258 44.0845C115.037 44.5952 113.638 44.8505 112.062 44.8505ZM112.062 40.8872C113.194 40.8872 114.149 40.6429 114.926 40.1545C115.703 39.6438 116.292 38.9666 116.691 38.1228C117.091 37.2569 117.29 36.2799 117.29 35.192C117.29 34.0818 117.08 33.1048 116.658 32.2611C116.258 31.3951 115.658 30.7179 114.859 30.2294C114.082 29.7187 113.15 29.4634 112.062 29.4634C110.974 29.4634 110.03 29.7187 109.231 30.2294C108.453 30.7179 107.854 31.3951 107.432 32.2611C107.01 33.1048 106.799 34.0818 106.799 35.192C106.799 36.2799 106.999 37.2569 107.399 38.1228C107.821 38.9666 108.42 39.6438 109.197 40.1545C109.974 40.6429 110.929 40.8872 112.062 40.8872Z" fill="white"/>
<path d="M130.47 44.7781C128.383 44.7781 126.762 44.0899 125.607 42.7132C124.475 41.3365 123.908 39.2937 123.908 36.5849V26.0938H128.538V36.9846C128.538 38.0947 128.849 38.983 129.471 39.6491C130.092 40.293 130.936 40.615 132.002 40.615C133.068 40.615 133.934 40.2708 134.6 39.5825C135.288 38.8942 135.632 37.9616 135.632 36.7848V26.0938H140.262V44.212H136.598V36.5183H136.964C136.964 38.339 136.732 39.86 136.265 41.0812C135.799 42.3023 135.1 43.2239 134.167 43.8456C133.234 44.4673 132.068 44.7781 130.67 44.7781H130.47Z" fill="white"/>
<path d="M151.408 44.811C150.143 44.811 148.977 44.5779 147.911 44.1116C146.846 43.6453 145.924 42.9903 145.147 42.1466C144.37 41.3028 143.77 40.3259 143.348 39.2157C142.926 38.0833 142.716 36.8621 142.716 35.5521V34.8526C142.716 33.5649 142.915 32.3547 143.315 31.2224C143.737 30.0899 144.314 29.1019 145.047 28.2581C145.802 27.4144 146.701 26.7594 147.744 26.2931C148.81 25.8046 149.987 25.5604 151.275 25.5604C152.696 25.5604 153.939 25.8713 155.005 26.4929C156.093 27.0924 156.959 28.0028 157.603 29.224C158.247 30.4452 158.602 31.9773 158.669 33.8202L157.303 32.2215V19.8984H161.933V44.2115H158.269V36.5179H159.069C159.002 38.3608 158.625 39.904 157.936 41.1474C157.248 42.3686 156.337 43.29 155.205 43.9118C154.095 44.5113 152.829 44.811 151.408 44.811ZM152.441 40.9143C153.351 40.9143 154.184 40.7144 154.939 40.3148C155.693 39.8929 156.293 39.2934 156.737 38.5163C157.203 37.7169 157.437 36.7843 157.437 35.7186V34.3864C157.437 33.3206 157.203 32.4324 156.737 31.7219C156.271 30.9892 155.66 30.4341 154.905 30.0567C154.15 29.657 153.329 29.4571 152.441 29.4571C151.441 29.4571 150.553 29.7014 149.776 30.1899C149.021 30.6561 148.422 31.3222 147.978 32.1882C147.556 33.0541 147.345 34.0644 147.345 35.219C147.345 36.3736 147.567 37.3839 148.011 38.2498C148.455 39.0936 149.055 39.7486 149.81 40.2148C150.587 40.6811 151.464 40.9143 152.441 40.9143Z" fill="white"/>
<path d="M51.4386 46.7728C49.8391 46.7728 48.8537 46.0344 47.2436 45.1647C45.6335 44.2949 40.9768 40.7933 40.9768 36.4344C40.9768 33.4774 40.2145 31.0858 38.9164 29.1798C37.628 27.2885 35.8825 25.9781 34.0667 25.0531C33.1917 24.6075 32.2811 24.243 31.3743 23.9418C30.8458 23.7664 30.539 23.1988 30.7684 22.6914C32.222 19.4733 35.4592 17.2344 39.2198 17.2344C44.3388 17.2344 48.4888 21.3841 48.4888 26.5033C48.4888 27.5985 48.2989 28.6495 47.9501 29.6248C49.4275 28.6291 51.2077 28.0481 53.1233 28.0481C58.2423 28.0481 62.3919 32.1978 62.3919 37.3171C62.3919 43.4798 56.9766 46.7728 51.4386 46.7728Z" fill="white"/>
<path d="M17.5918 36.5414C17.5918 41.4272 20.813 45.4981 25.0802 46.3976C25.7389 46.6382 26.45 46.7695 27.1918 46.7695H41.593C42.0759 46.7695 42.2862 46.1236 41.9175 45.8116C39.4007 43.682 37.5303 40.6808 37.5303 36.431C37.5303 34.0959 36.9389 32.3952 36.0678 31.1166C35.1867 29.8233 33.9476 28.8567 32.5021 28.1202C31.0432 27.3772 29.4594 26.9038 27.9468 26.5683C27.5906 26.5233 27.2281 26.5 26.8608 26.5C21.7416 26.5 17.5918 30.9957 17.5918 36.5414Z" fill="white"/>
</svg>
