<svg width="135" height="64" viewBox="0 0 135 64" fill="none" xmlns="http://www.w3.org/2000/svg">
<path d="M41.454 42.801C41.5865 45.4614 39.0833 47.7479 35.8629 47.9081C32.6426 48.0688 29.9246 46.0418 29.7921 43.3818C29.6596 40.7215 32.1628 38.4349 35.3832 38.2745C38.6035 38.1142 41.3215 40.1407 41.454 42.801Z" fill="white"/>
<path d="M30.0049 37.4583C30.0766 38.8985 29.3402 40.1055 28.3601 40.1543C27.38 40.2031 26.5273 39.0752 26.4555 37.635C26.3839 36.1949 27.1203 34.9879 28.1003 34.939C29.0804 34.8902 29.9331 36.0182 30.0049 37.4583Z" fill="white"/>
<path d="M34.4242 34.3333C34.4959 35.7735 33.7596 36.9805 32.7794 37.0293C31.7993 37.0781 30.9466 35.9502 30.8749 34.51C30.8032 33.0699 31.5396 31.8629 32.5197 31.814C33.4998 31.7652 34.3525 32.8931 34.4242 34.3333Z" fill="white"/>
<path d="M38.9882 34.1067C39.06 35.5469 38.3236 36.7539 37.3435 36.8027C36.3633 36.8515 35.5106 35.7236 35.4389 34.2835C35.3672 32.8433 36.1036 31.6362 37.0837 31.5875C38.0638 31.5386 38.9165 32.6666 38.9882 34.1067Z" fill="white"/>
<path d="M43.6967 36.7708C43.7684 38.2109 43.032 39.418 42.0519 39.4668C41.0718 39.5156 40.2191 38.3877 40.1474 36.9475C40.0757 35.5074 40.8121 34.3003 41.7922 34.2515C42.7723 34.2027 43.6249 35.3306 43.6967 36.7708Z" fill="white"/>
<path d="M26.2405 30.502C24.7254 32.6927 21.3473 32.9818 18.6955 31.1478C16.0435 29.3137 15.122 26.051 16.6371 23.8603C18.1522 21.6696 21.5302 21.3805 24.1821 23.2145C26.834 25.0486 27.7556 28.3113 26.2405 30.502Z" fill="white"/>
<path d="M20.417 19.2908C19.5968 20.4767 18.2776 20.9857 17.4705 20.4275C16.6634 19.8693 16.674 18.4554 17.4942 17.2694C18.3144 16.0835 19.6336 15.5746 20.4407 16.1328C21.2478 16.691 21.2372 18.1049 20.417 19.2908Z" fill="white"/>
<path d="M25.8242 19.5018C25.004 20.6877 23.6848 21.1966 22.8778 20.6384C22.0706 20.0802 22.0813 18.6663 22.9014 17.4804C23.7217 16.2944 25.0408 15.7855 25.8479 16.3437C26.6551 16.9019 26.6445 18.3158 25.8242 19.5018Z" fill="white"/>
<path d="M29.5835 22.1033C28.7633 23.2893 27.4441 23.7982 26.637 23.24C25.8299 22.6818 25.8405 21.2679 26.6607 20.0819C27.4809 18.896 28.8001 18.3871 29.6072 18.9453C30.4143 19.5035 30.4037 20.9174 29.5835 22.1033Z" fill="white"/>
<path d="M31.6909 27.0877C30.8707 28.2736 29.5515 28.7825 28.7445 28.2244C27.9373 27.6662 27.9479 26.2523 28.7682 25.0663C29.5884 23.8804 30.9076 23.3715 31.7146 23.9296C32.5218 24.4879 32.5112 25.9017 31.6909 27.0877Z" fill="white"/>
<path d="M52.4806 41.51C51.21 40.8837 50.1721 40.0694 49.367 39.0672C48.5614 38.0474 47.9621 36.9556 47.5683 35.7923C47.1923 34.6114 47.0044 33.4661 47.0044 32.3566V31.7659C47.0044 30.5491 47.2013 29.35 47.5951 28.1688C47.989 26.97 48.5882 25.8872 49.3934 24.9208C50.2169 23.9545 51.2458 23.185 52.4806 22.6125C53.7333 22.0218 55.2093 21.7266 56.9096 21.7266C58.6814 21.7266 60.247 22.0577 61.6071 22.7198C62.9672 23.3819 64.0498 24.3035 64.8554 25.4847C65.6785 26.6479 66.1618 28.0168 66.3046 29.5917H61.8756C61.7508 28.8042 61.4639 28.1333 61.0168 27.5784C60.5692 27.0236 59.9878 26.5941 59.2722 26.2899C58.574 25.9857 57.7863 25.8337 56.9096 25.8337C56.0328 25.8337 55.2545 25.9857 54.5743 26.2899C53.8944 26.5941 53.322 27.0236 52.8565 27.5784C52.708 27.7624 52.5701 27.9582 52.4435 28.1658C52.4085 28.223 52.3741 28.2812 52.341 28.3402L52.2949 28.4235C52.2609 28.4866 52.2273 28.5507 52.1951 28.6156C52.144 28.718 52.0948 28.8229 52.0487 28.9304C52.0236 28.9884 51.9999 29.0467 51.9762 29.1059C51.957 29.1533 51.9382 29.2014 51.9198 29.25C51.8813 29.3528 51.8446 29.4578 51.8097 29.5649C51.5765 30.3164 51.4602 31.1575 51.4602 32.088C51.4602 33.0008 51.5765 33.8417 51.8097 34.6114C51.837 34.6936 51.8657 34.7746 51.8952 34.8546L51.9413 34.9733C52.1803 35.5773 52.494 36.1188 52.883 36.5976C53.3663 37.1525 53.9571 37.5819 54.6548 37.8861C55.353 38.1726 56.1492 38.3157 57.0438 38.3157C58.404 38.3157 59.5492 37.9847 60.4802 37.3225C61.4285 36.6604 62.0009 35.7477 62.1979 34.5845H66.6004C66.4389 36.0161 65.956 37.3315 65.1504 38.5305C64.3636 39.7115 63.2805 40.6599 61.9025 41.3758C60.5424 42.0738 58.9227 42.4228 57.0438 42.4228C55.2724 42.4228 53.7512 42.1184 52.4806 41.51Z" fill="white"/>
<path d="M68.125 41.9082V22.3125H72.447V41.9082H68.125Z" fill="white"/>
<path d="M76.31 40.7244C77.2225 41.8159 78.5289 42.3618 80.2292 42.3618H80.4172C81.5267 42.3618 82.693 42.3887 83.4444 41.9055C83.9622 41.5729 84.677 41.1042 85.1948 40.5231V41.9055H88.6042V27.1953H84.3095V35.8389C84.3095 36.6621 84.0679 37.3153 83.5845 37.7985C83.1016 38.2816 82.475 38.5233 81.7057 38.5233C80.9538 38.5233 80.3545 38.2906 79.907 37.8253C79.4599 37.3601 79.2361 36.7338 79.2361 35.9462V27.1953H74.9409V35.7316C74.9409 37.9505 75.3974 39.6149 76.31 40.7244Z" fill="white"/>
<path fill-rule="evenodd" clip-rule="evenodd" d="M97.7589 42.4178C96.5062 42.4178 95.3962 42.203 94.43 41.7736C93.4816 41.344 92.6854 40.7714 92.0409 40.0555C91.4148 39.3219 90.9314 38.5077 90.5913 37.6127C90.2691 36.7002 90.1084 35.7695 90.1084 34.821V34.2843C90.1084 33.3 90.2691 32.3604 90.5913 31.4657C90.9314 30.5531 91.4148 29.7389 92.0409 29.023C92.6675 28.3071 93.4458 27.7435 94.3763 27.3318C95.3246 26.9023 96.3987 26.6875 97.5973 26.6875C99.1722 26.6875 100.497 27.0455 101.57 27.7614C102.662 28.4594 103.494 29.3809 104.067 30.5262C104.64 31.6536 104.926 32.8883 104.926 34.2305V35.6801H94.1816C94.2429 36.116 94.344 36.5188 94.4837 36.8881C94.7343 37.5324 95.1282 38.0334 95.6648 38.3912C96.2018 38.7491 96.8996 38.9281 97.7589 38.9281C98.5457 38.9281 99.1901 38.776 99.6914 38.4718C99.9264 38.3289 100.126 38.1703 100.291 37.9959C100.476 37.7988 100.616 37.5817 100.711 37.3444H104.657C104.443 38.3287 104.022 39.2054 103.395 39.9751C102.769 40.7445 101.982 41.344 101.034 41.7736C100.085 42.203 98.9932 42.4178 97.7589 42.4178ZM94.2357 33.1233C94.2281 33.1609 94.221 33.1989 94.2147 33.2373H100.847C100.785 32.8247 100.686 32.4491 100.55 32.1099C100.3 31.4836 99.9241 31.0094 99.4229 30.6873C98.9395 30.3473 98.3313 30.1772 97.5973 30.1772C97.4603 30.1772 97.3265 30.1829 97.1967 30.1943C97.0683 30.2057 96.9434 30.2224 96.8226 30.245C96.3987 30.3236 96.0219 30.4712 95.6921 30.6873C95.1725 31.0273 94.7786 31.5284 94.5105 32.1906C94.4823 32.2579 94.4559 32.3269 94.4304 32.3975C94.4045 32.4705 94.3803 32.5452 94.3575 32.6217C94.3105 32.7812 94.2697 32.9484 94.2357 33.1233Z" fill="white"/>
<path d="M107.101 41.0731C108.282 41.9322 109.919 42.3616 112.013 42.3616C113.337 42.3616 114.492 42.1736 115.476 41.7978C116.46 41.4042 117.221 40.8493 117.757 40.1336C118.294 39.3998 118.563 38.5407 118.563 37.5565C118.563 36.1966 118.062 35.114 117.06 34.3085C116.057 33.5032 114.653 33.0023 112.845 32.8054L111.691 32.6979C110.921 32.6085 110.367 32.4564 110.027 32.2416C109.889 32.1544 109.778 32.051 109.697 31.9313C109.577 31.7562 109.517 31.5464 109.517 31.3021C109.517 30.8727 109.714 30.5327 110.107 30.282C110.501 30.0316 111.029 29.9064 111.691 29.9064C112.532 29.9064 113.167 30.0764 113.596 30.4162C114.026 30.7383 114.277 31.1411 114.348 31.6242H118.16C118.107 30.0495 117.498 28.8504 116.335 28.0272C115.172 27.1861 113.642 26.7656 111.745 26.7656C110.563 26.7656 109.508 26.9446 108.577 27.3026C107.664 27.6603 106.949 28.1883 106.43 28.8863C105.911 29.5842 105.651 30.452 105.651 31.49C105.651 32.7427 106.09 33.7718 106.966 34.577C107.862 35.3823 109.194 35.8744 110.966 36.0534L112.121 36.1607C113.087 36.268 113.758 36.4559 114.134 36.7245C114.509 36.975 114.697 37.315 114.697 37.7445C114.697 38.2276 114.447 38.6035 113.946 38.8718C113.463 39.1225 112.845 39.2477 112.094 39.2477C111.109 39.2477 110.367 39.0687 109.865 38.7108C109.382 38.3351 109.105 37.9144 109.034 37.4492H105.221C105.293 39.0062 105.92 40.214 107.101 41.0731Z" fill="white"/>
</svg>
