<svg width="160" height="64" viewBox="0 0 160 64" fill="none" xmlns="http://www.w3.org/2000/svg">
<path fill-rule="evenodd" clip-rule="evenodd" d="M47.913 16.5621C49.1446 17.0723 50.2635 17.8203 51.206 18.7632C52.1489 19.7056 52.8969 20.8246 53.4073 22.0562C53.9175 23.2878 54.18 24.6079 54.18 25.941C54.18 27.2741 53.9175 28.5942 53.4073 29.8258C52.8969 31.0574 52.1489 32.1764 51.206 33.1189L37.1264 47.1983C35.8938 48.4312 33.8951 48.4312 32.6626 47.1983L18.583 33.1189C16.6794 31.2151 15.6099 28.6332 15.6099 25.941C15.6099 23.2488 16.6794 20.6669 18.583 18.7632C20.4867 16.8595 23.0686 15.7901 25.7608 15.7901C28.453 15.7901 31.0349 16.8595 32.9386 18.7632L34.8945 20.7191L36.8504 18.7632C37.7929 17.8203 38.9118 17.0723 40.1434 16.5621C41.375 16.0517 42.695 15.7891 44.0284 15.7891C45.3614 15.7891 46.6814 16.0517 47.913 16.5621ZM29.5934 26.8265C28.1538 28.9854 27.0858 31.1575 27.0858 33.5132C27.0858 36.9836 29.0728 40.2463 31.9217 41.512L32.8958 40.1258C34.0718 38.7821 35.979 38.7815 37.1557 40.1258L37.9515 41.0349C40.8003 39.769 42.5486 36.8013 42.5486 33.5126C42.5486 29.4279 39.1943 26.7633 39.1943 26.7633C38.8575 26.4441 38.5771 26.5718 38.5759 27.0311C38.5759 27.0311 38.7872 31.0056 36.6977 31.0056C35.6334 31.0056 35.6144 29.9918 35.5869 28.5179C35.552 26.6462 35.5032 24.0327 33.282 21.8116C32.4069 21.0615 32.0554 20.7602 31.8936 20.8406C31.5153 21.0289 32.1787 23.312 29.5934 26.8265ZM38.8175 23.4645C38.0645 22.3028 36.604 21.6344 35.9597 21.7461C35.6809 21.7942 35.7639 21.8859 35.9787 22.1237C36.2609 22.4361 36.7711 23.0005 36.9884 24.0492C37.3717 25.8953 39.869 25.1427 38.8175 23.4645Z" fill="white"/>
<path d="M81.1072 27.2632C80.5668 26.2726 79.8238 25.5183 78.8785 25.0005C77.9328 24.4826 76.8295 24.2237 75.5686 24.2237C74.1728 24.2237 72.9346 24.5389 71.8538 25.1693C70.7729 25.7998 69.9288 26.7003 69.3209 27.8711C68.7131 29.0418 68.409 30.3927 68.409 31.9238C68.409 33.4998 68.7131 34.8732 69.3209 36.0439C69.9513 37.2146 70.8182 38.1153 71.9212 38.7456C73.0245 39.3759 74.3079 39.6913 75.7712 39.6913C77.5726 39.6913 79.0471 39.2183 80.1953 38.273C81.3436 37.3045 82.0978 35.9652 82.4581 34.2541H74.3529V30.6404H87.1185V34.7605C86.8035 36.4042 86.128 37.9239 85.0924 39.3197C84.0565 40.7156 82.7169 41.8413 81.0735 42.6968C79.4523 43.53 77.6288 43.9465 75.6023 43.9465C73.3286 43.9465 71.2684 43.4398 69.4221 42.4267C67.5985 41.3912 66.1575 39.9613 65.0994 38.1378C64.0639 36.3139 63.5459 34.2428 63.5459 31.9238C63.5459 29.6047 64.0639 27.5334 65.0994 25.7097C66.1575 23.8635 67.5985 22.4338 69.4221 21.4207C71.2684 20.385 73.3173 19.8672 75.5686 19.8672C78.2254 19.8672 80.5331 20.5201 82.4918 21.8259C84.4505 23.1093 85.8014 24.9217 86.5444 27.2632H81.1072Z" fill="white"/>
<path d="M106.32 33.98C106.32 34.6556 106.276 35.2634 106.186 35.8038H92.508C92.6204 37.1547 93.0934 38.2127 93.9263 38.9782C94.7593 39.7437 95.7839 40.1265 96.9996 40.1265C98.7557 40.1265 100.005 39.3722 100.748 37.8637H105.848C105.307 39.665 104.272 41.1508 102.741 42.3218C101.21 43.4701 99.3298 44.0439 97.101 44.0439C95.2997 44.0439 93.6788 43.6499 92.2377 42.8619C90.8194 42.0515 89.7048 40.9144 88.8944 39.4512C88.1064 37.9876 87.7124 36.2989 87.7124 34.3852C87.7124 32.449 88.1064 30.7492 88.8944 29.2858C89.6823 27.8223 90.7856 26.6966 92.204 25.9086C93.6223 25.1206 95.2547 24.7266 97.101 24.7266C98.8796 24.7266 100.467 25.1093 101.863 25.8748C103.281 26.6403 104.373 27.7323 105.139 29.1507C105.926 30.5466 106.32 32.1564 106.32 33.98ZM101.424 32.6291C101.401 31.4134 100.962 30.4453 100.107 29.7248C99.2511 28.9818 98.204 28.6103 96.9659 28.6103C95.7951 28.6103 94.8045 28.9705 93.9938 29.691C93.2058 30.389 92.7219 31.3685 92.5417 32.6291H101.424Z" fill="white"/>
<path d="M118.451 24.7578C120.68 24.7578 122.481 25.467 123.855 26.8854C125.228 28.2813 125.915 30.2401 125.915 32.7618V43.7376H121.187V33.4033C121.187 31.9176 120.815 30.7804 120.072 29.9925C119.329 29.1819 118.316 28.7766 117.033 28.7766C115.727 28.7766 114.691 29.1819 113.926 29.9925C113.183 30.7804 112.811 31.9176 112.811 33.4033V43.7376H108.083V25.028H112.811V27.3582C113.442 26.5477 114.241 25.9173 115.209 25.467C116.2 24.9942 117.281 24.7578 118.451 24.7578Z" fill="white"/>
<path d="M133.551 39.7595H144.156V43.7446H128.081V40.0973L138.617 24.1569H128.081V20.1719H144.156V23.8192L133.551 39.7595Z" fill="white"/>
</svg>
