<svg width="156" height="64" viewBox="0 0 156 64" fill="none" xmlns="http://www.w3.org/2000/svg">
<path d="M24.5652 20H20.4498C20.2289 20 20.0498 20.1791 20.0498 20.4V28.1548L24.5652 20Z" fill="white"/>
<path d="M20.0498 30.6491C20.0628 30.6496 20.0759 30.65 20.0892 30.65H26.3635C26.8546 30.65 27.2405 31.0695 27.1986 31.558L26.6557 37.8899C26.5785 38.7896 27.7867 39.1564 28.2244 38.366L34.744 26.5915C35.0528 26.0338 34.6487 25.35 34.0104 25.35H27.7361C27.245 25.35 26.8591 24.9305 26.901 24.442L27.2819 20H33.6134C39.4479 20 42.0634 27.3386 37.5509 31.0485L34.0234 33.9486C33.7924 34.1386 33.7469 34.4753 33.9192 34.7201L40.0062 43.3696C40.193 43.6348 40.0034 44 39.6792 44H20.4498C20.2289 44 20.0498 43.8208 20.0498 43.6V30.6491Z" fill="white"/>
<path d="M88.5925 32.9938V39.0582H91.9421V32.2494C91.9421 31.4467 91.7673 30.7461 91.4169 30.1476C91.0813 29.5346 90.5997 29.0602 89.9721 28.7246C89.3441 28.3742 88.6145 28.199 87.7825 28.199C86.9653 28.199 86.2425 28.3742 85.6153 28.7246C85.4485 28.8137 85.2917 28.9133 85.1445 29.023C85.0649 29.0822 84.9885 29.1445 84.9145 29.2098V23.6016H81.5649V39.0582H84.9145V32.9938C84.9145 32.6289 84.9949 32.3078 85.1557 32.0305C85.3161 31.7385 85.5349 31.5195 85.8121 31.3736C86.0897 31.2131 86.4105 31.1328 86.7753 31.1328C87.3009 31.1328 87.7317 31.308 88.0673 31.6582C88.4177 31.994 88.5925 32.4391 88.5925 32.9938Z" fill="white"/>
<path fill-rule="evenodd" clip-rule="evenodd" d="M51.3758 32.6873V39.0582H47.939V23.6016H54.2438C55.2658 23.6016 56.1634 23.7986 56.937 24.1926C57.7102 24.5721 58.3162 25.1049 58.7542 25.7908C59.1918 26.4768 59.4106 27.265 59.4106 28.1553C59.4106 29.0602 59.1918 29.8557 58.7542 30.5416C58.3162 31.2131 57.7034 31.7385 56.915 32.118C56.4754 32.3297 55.9926 32.4824 55.4666 32.576L60.4182 39.0582H56.3458L51.7358 32.6873H51.3758ZM51.3758 30.1476H53.8282C54.5142 30.1476 55.0398 29.9724 55.4046 29.6221C55.7838 29.2719 55.9738 28.7974 55.9738 28.199C55.9738 27.6445 55.7914 27.1848 55.4262 26.8199C55.0614 26.4549 54.5362 26.2724 53.8502 26.2724H51.3758V30.1476Z" fill="white"/>
<path fill-rule="evenodd" clip-rule="evenodd" d="M62.6283 38.601C63.5335 39.068 64.5623 39.3016 65.7151 39.3016C66.6059 39.3016 67.4231 39.1482 68.1675 38.8418C68.9115 38.5351 69.5467 38.0754 70.0723 37.4625L68.2331 35.6234C67.9119 35.9882 67.5399 36.2656 67.1163 36.4554C66.6931 36.6304 66.2191 36.7182 65.6931 36.7182C65.1243 36.7182 64.6279 36.6014 64.2047 36.3678C63.7959 36.1197 63.4751 35.7767 63.2415 35.3388C63.1679 35.1869 63.1071 35.0252 63.0583 34.8535L70.6851 34.8353C70.7435 34.558 70.7799 34.3172 70.7943 34.1129C70.8047 34.0365 70.8127 33.9621 70.8195 33.8892C70.8231 33.8531 70.8255 33.8176 70.8279 33.7824C70.8315 33.7295 70.8343 33.6775 70.8359 33.6266L70.8375 33.5703L70.8383 33.4998C70.8383 32.4634 70.6051 31.5439 70.1379 30.7412C69.6855 29.9384 69.0579 29.3109 68.2551 28.8584C67.4523 28.406 66.5251 28.1797 65.4747 28.1797C64.3943 28.1797 63.4239 28.4205 62.5627 28.9021C61.7015 29.3838 61.0155 30.048 60.5047 30.8945C60.0083 31.7264 59.7603 32.6752 59.7603 33.7406C59.7603 34.806 60.0159 35.7621 60.5263 36.6086C61.0375 37.455 61.7383 38.1193 62.6283 38.601ZM63.0591 32.5541C63.0755 32.497 63.0931 32.4412 63.1119 32.3865C63.1439 32.2943 63.1795 32.2054 63.2195 32.1205C63.4387 31.6826 63.7379 31.3468 64.1171 31.1134C64.5111 30.8652 64.9711 30.7412 65.4963 30.7412C65.9923 30.7412 66.4083 30.8508 66.7443 31.0697L66.7895 31.0966L66.8343 31.1254C66.8723 31.1506 66.9087 31.1771 66.9443 31.2049C66.9791 31.232 67.0131 31.2605 67.0459 31.2902C67.2495 31.4746 67.4115 31.7076 67.5323 31.9892C67.6059 32.1541 67.6651 32.3379 67.7103 32.5408L63.0591 32.5541Z" fill="white"/>
<path d="M76.7249 39.3016C75.6297 39.3016 74.6373 39.0607 73.7469 38.5791C72.8569 38.0974 72.1565 37.4332 71.6453 36.5867C71.1345 35.7402 70.8789 34.7914 70.8789 33.7406C70.8789 32.6752 71.1345 31.7264 71.6453 30.8945C72.1709 30.048 72.8785 29.3838 73.7689 28.9021C74.6593 28.4205 75.6589 28.1797 76.7685 28.1797C77.6001 28.1797 78.3589 28.3258 79.0453 28.6176C79.3949 28.756 79.7249 28.9308 80.0345 29.142C80.3449 29.3539 80.6357 29.6023 80.9061 29.8875L78.7605 32.033C78.5125 31.7556 78.2205 31.5514 77.8849 31.4199C77.7333 31.358 77.5709 31.3107 77.3965 31.2779C77.3169 31.2629 77.2353 31.251 77.1513 31.2422C77.0645 31.233 76.9753 31.2271 76.8833 31.2246C76.8453 31.2234 76.8073 31.2228 76.7685 31.2228C76.6501 31.2228 76.5349 31.2295 76.4229 31.2426L76.3625 31.2504L76.3249 31.2558C76.2861 31.2619 76.2473 31.2689 76.2089 31.2766C75.9465 31.3293 75.7025 31.4209 75.4765 31.5514C75.1117 31.7556 74.8201 32.0474 74.6009 32.4269C74.3965 32.792 74.2941 33.2224 74.2941 33.7187C74.2941 34.215 74.3965 34.6529 74.6009 35.0322C74.8201 35.4117 75.1193 35.7109 75.4985 35.9299C75.8777 36.1488 76.3013 36.2584 76.7685 36.2584C77.2065 36.2584 77.5929 36.1853 77.9285 36.0394C78.2789 35.8789 78.5781 35.6599 78.8261 35.3826L80.9501 37.5281C80.3953 38.1119 79.7677 38.557 79.0673 38.8636C78.3665 39.1554 77.5857 39.3016 76.7249 39.3016Z" fill="white"/>
<path fill-rule="evenodd" clip-rule="evenodd" d="M97.6622 39.2734C96.6846 39.2734 95.8086 39.0326 95.0354 38.5508C94.2762 38.0691 93.6706 37.4125 93.2182 36.5804C92.7802 35.7486 92.561 34.7998 92.561 33.7344C92.561 32.6689 92.7802 31.7201 93.2182 30.8883C93.6706 30.0562 94.2762 29.3996 95.0354 28.9178C95.8086 28.4361 96.6846 28.1953 97.6622 28.1953C98.3774 28.1953 99.0198 28.334 99.589 28.6113C99.9718 28.7932 100.307 29.022 100.596 29.2978V28.4142H103.88V39.0545H100.596V38.1924C100.399 38.3789 100.177 38.5441 99.9314 38.6881C99.8866 38.7144 99.8406 38.7402 99.7938 38.7652C99.7342 38.797 99.673 38.8277 99.6106 38.8574C99.027 39.1348 98.3774 39.2734 97.6622 39.2734ZM98.3414 36.2521C99.0566 36.2521 99.6326 36.0186 100.071 35.5516C100.509 35.0699 100.727 34.464 100.727 33.7344C100.727 33.4861 100.702 33.2525 100.651 33.0336C100.599 32.8146 100.523 32.6103 100.421 32.4207C100.231 32.0412 99.9538 31.7494 99.589 31.5451C99.3918 31.4219 99.1762 31.3334 98.9422 31.2795C98.7602 31.2375 98.5674 31.2166 98.363 31.2166C98.1298 31.2166 97.909 31.2439 97.7014 31.2986C97.5746 31.332 97.4522 31.3756 97.335 31.4293C97.2598 31.4637 97.1866 31.5023 97.115 31.5451C96.7646 31.7494 96.4802 32.0412 96.261 32.4207C96.057 32.8002 95.955 33.2381 95.955 33.7344C95.955 34.216 96.057 34.6467 96.261 35.026C96.4654 35.4054 96.7502 35.7047 97.115 35.9236C97.4798 36.1426 97.8886 36.2521 98.3414 36.2521Z" fill="white"/>
<path d="M108.712 28.4142H105.362V39.0545H108.712V33.209C108.712 32.5228 108.873 32.0121 109.194 31.6764C109.53 31.3262 109.975 31.151 110.529 31.151C110.807 31.151 111.055 31.1947 111.274 31.2824C111.492 31.3699 111.675 31.4939 111.821 31.6545L113.813 29.1367C113.521 28.8156 113.178 28.5822 112.784 28.4361C112.405 28.2756 111.96 28.1953 111.449 28.1953C110.281 28.1953 109.369 28.5385 108.712 29.2244V28.4142Z" fill="white"/>
<path fill-rule="evenodd" clip-rule="evenodd" d="M118.041 43.827C116.873 43.827 115.844 43.6226 114.954 43.2142C114.078 42.8202 113.385 42.2582 112.874 41.5282L114.932 39.4703C115.311 39.9228 115.735 40.2658 116.202 40.4994C116.683 40.7326 117.26 40.8494 117.931 40.8494C118.763 40.8494 119.412 40.6454 119.88 40.2366C120.361 39.8279 120.602 39.2514 120.602 38.507V37.835C120.374 38.0174 120.119 38.1756 119.836 38.31C119.252 38.5873 118.603 38.726 117.888 38.726C116.909 38.726 116.041 38.4926 115.282 38.0254C114.523 37.5584 113.925 36.9234 113.487 36.1207C113.049 35.318 112.83 34.4277 112.83 33.4498C112.83 32.4572 113.049 31.567 113.487 30.7787C113.925 29.976 114.523 29.3484 115.282 28.8959C116.041 28.4289 116.909 28.1953 117.888 28.1953C118.617 28.1953 119.267 28.334 119.836 28.6113C119.888 28.6348 119.94 28.6592 119.99 28.6846C120.238 28.81 120.464 28.9582 120.668 29.1293V28.4142H123.952V38.4195C123.952 39.5142 123.696 40.463 123.186 41.2654C122.675 42.0682 121.974 42.6958 121.084 43.1482C120.193 43.601 119.179 43.827 118.041 43.827ZM118.522 35.7486C118.99 35.7486 119.391 35.6463 119.726 35.442C119.812 35.3918 119.893 35.3375 119.969 35.2793C120.2 35.101 120.382 34.8852 120.514 34.632C120.571 34.5277 120.619 34.4197 120.658 34.3078C120.71 34.1627 120.748 34.0109 120.771 33.8527C120.79 33.7228 120.799 33.5885 120.799 33.4498C120.799 33.0119 120.704 32.6178 120.514 32.2676C120.34 31.9172 120.076 31.6398 119.726 31.4355C119.391 31.2312 118.99 31.1291 118.522 31.1291C118.384 31.1291 118.252 31.1387 118.123 31.1576L118.056 31.1686L117.997 31.1795C117.87 31.2051 117.747 31.2404 117.63 31.2855C117.564 31.3107 117.5 31.339 117.438 31.3703C117.398 31.3908 117.358 31.4125 117.318 31.4355C116.968 31.6398 116.698 31.9172 116.508 32.2676C116.409 32.45 116.336 32.6443 116.289 32.8506C116.245 33.0402 116.224 33.24 116.224 33.4498C116.224 33.8584 116.318 34.2451 116.508 34.6102C116.698 34.9603 116.96 35.2377 117.296 35.442C117.484 35.5518 117.69 35.6322 117.912 35.683C118.103 35.7268 118.306 35.7486 118.522 35.7486Z" fill="white"/>
<path fill-rule="evenodd" clip-rule="evenodd" d="M127.608 38.601C128.513 39.068 129.542 39.3016 130.695 39.3016C131.585 39.3016 132.403 39.1482 133.147 38.8418C133.891 38.5351 134.526 38.0754 135.051 37.4625L133.212 35.6234C132.891 35.9882 132.519 36.2656 132.096 36.4554C131.673 36.6304 131.198 36.7182 130.673 36.7182C130.104 36.7182 129.607 36.6014 129.184 36.3678C128.892 36.1908 128.645 35.9654 128.443 35.6916C128.411 35.648 128.38 35.6031 128.35 35.557C128.304 35.4873 128.261 35.4144 128.221 35.3388C128.147 35.1869 128.086 35.0252 128.037 34.8535L135.665 34.8353C135.693 34.6984 135.717 34.5703 135.735 34.4512C135.754 34.3289 135.767 34.2162 135.774 34.1129C135.784 34.0357 135.793 33.9603 135.799 33.8869C135.811 33.7517 135.818 33.6226 135.818 33.4998C135.818 32.4634 135.584 31.5439 135.117 30.7412C134.665 29.9384 134.037 29.3109 133.235 28.8584C132.431 28.406 131.505 28.1797 130.454 28.1797C129.374 28.1797 128.403 28.4205 127.542 28.9021C126.681 29.3838 125.995 30.048 125.484 30.8945C124.988 31.7264 124.74 32.6752 124.74 33.7406C124.74 34.806 124.995 35.7621 125.506 36.6086C126.017 37.455 126.717 38.1193 127.608 38.601ZM128.039 32.5541C128.083 32.4006 128.136 32.2558 128.199 32.1205C128.324 31.8705 128.475 31.6539 128.652 31.4707C128.714 31.4064 128.78 31.3463 128.849 31.2902C128.927 31.226 129.009 31.167 129.097 31.1134C129.491 30.8652 129.951 30.7412 130.476 30.7412C130.972 30.7412 131.388 30.8508 131.724 31.0697C131.858 31.1478 131.979 31.2408 132.087 31.3488C132.262 31.5232 132.404 31.7367 132.512 31.9892C132.585 32.1541 132.644 32.3379 132.69 32.5408L128.039 32.5541Z" fill="white"/>
</svg>
